<?xml version="1.0" encoding="UTF-8"?>
<svg xmlns="http://www.w3.org/2000/svg" viewBox="0 0 1000 1000">
  <defs>
    <style>
      .cls-1 {
        fill: #231f20;
      }
    </style>
  </defs>
  <g id="Outer_Fox" data-name="Outer Fox">
    <path class="cls-1" d="M820.19,585.62l-205.1-374.05c-3.58-6.52-10.42-10.58-17.86-10.58h-194.47c-7.44,0-14.29,4.05-17.86,10.58l-205.1,374.05c-4.52,8.24-2.81,18.51,4.14,24.85l200.93,183.22c3.75,3.42,8.65,5.32,13.73,5.32h202.81c5.08,0,9.97-1.9,13.73-5.32l200.93-183.22c6.95-6.34,8.66-16.6,4.14-24.85ZM728.83,588.01l-141.48,129.01c-3.48,3.18-8.03,4.94-12.74,4.94h-143.23c-4.71,0-9.26-1.76-12.74-4.94l-141.48-129.01c-6.45-5.88-8.04-15.41-3.84-23.06l145.35-265.08c3.32-6.05,9.68-9.82,16.58-9.82h135.49c6.9,0,13.26,3.76,16.58,9.82l145.35,265.08c4.2,7.65,2.61,17.18-3.84,23.06Z"/>
    <path id="Inner" class="cls-1" d="M441.94,358.06l-100.08,182.53c-2.89,5.27-1.8,11.83,2.64,15.88l97.42,88.83c2.4,2.19,5.53,3.4,8.77,3.4h98.62c3.25,0,6.37-1.21,8.77-3.4l97.42-88.83c4.44-4.05,5.53-10.61,2.64-15.88l-100.08-182.53c-2.29-4.17-6.66-6.76-11.42-6.76h-93.29c-4.75,0-9.13,2.59-11.42,6.76Z"/>
  </g>
  <g id="Ears">
    <path class="cls-1" d="M675.47,213.32l169.64,317.9c3.31,6.2,12.7,3.85,12.7-3.18V210.14c0-3.73-3.02-6.75-6.75-6.75h-169.64c-5.09,0-8.35,5.43-5.95,9.92ZM807.51,359.06l-50.49-94.61c-1.94-3.63.69-8.02,4.81-8.02h50.49c3.01,0,5.45,2.44,5.45,5.45v94.61c0,5.67-7.59,7.57-10.26,2.57Z"/>
    <path class="cls-1" d="M323.54,210.87l-168.8,316.33c-3.29,6.17-12.64,3.83-12.64-3.16V207.71c0-3.71,3.01-6.71,6.71-6.71h168.8c5.07,0,8.31,5.4,5.92,9.88ZM196.03,351.65l50.16-94.14c1.92-3.61-.69-7.98-4.78-7.98h-50.16c-2.99,0-5.42,2.43-5.42,5.42v94.14c0,5.65,7.54,7.53,10.19,2.55Z"/>
  </g>
</svg>