<svg width="108" height="32" viewBox="0 0 108 32" fill="none" xmlns="http://www.w3.org/2000/svg">
<path d="M6.92 27.18C5.05333 27.18 3.56 26.7667 2.44 25.94C1.32 25.1 0.666662 23.92 0.479996 22.4H3.44C3.53333 23.1733 3.90666 23.7867 4.56 24.24C5.21333 24.68 6.04666 24.9 7.06 24.9C7.88666 24.9 8.52 24.7533 8.96 24.46C9.41333 24.1667 9.64 23.7733 9.64 23.28C9.64 22.8133 9.50666 22.44 9.24 22.16C8.97333 21.8667 8.51333 21.6333 7.86 21.46L5.18 20.72C3.80666 20.3333 2.8 19.8067 2.16 19.14C1.53333 18.46 1.22 17.6133 1.22 16.6C1.22 15.7333 1.44 14.9867 1.88 14.36C2.33333 13.72 2.96666 13.2333 3.78 12.9C4.59333 12.5533 5.54666 12.38 6.64 12.38C8.32 12.38 9.66 12.78 10.66 13.58C11.66 14.3667 12.2267 15.4133 12.36 16.72H9.4C9.26666 16.0133 8.94 15.4933 8.42 15.16C7.91333 14.8267 7.26 14.66 6.46 14.66C5.76666 14.66 5.21333 14.7933 4.8 15.06C4.38666 15.3267 4.18 15.6867 4.18 16.14C4.18 16.4867 4.29333 16.8067 4.52 17.1C4.74666 17.38 5.22 17.62 5.94 17.82L8.62 18.56C10.0333 18.9467 11.0467 19.48 11.66 20.16C12.2867 20.8267 12.6 21.6733 12.6 22.7C12.6 24.14 12.1 25.2467 11.1 26.02C10.1 26.7933 8.70666 27.18 6.92 27.18Z" fill="#081D32"/>
<path d="M17.5078 27.2C16.7878 27.2 16.1678 27.0467 15.6478 26.74C15.1411 26.42 14.7545 26 14.4878 25.48C14.2211 24.9467 14.0878 24.3533 14.0878 23.7V16.8H17.0878V23.12C17.0878 23.68 17.2278 24.1 17.5078 24.38C17.7878 24.66 18.1811 24.8 18.6878 24.8C19.1411 24.8 19.5411 24.6933 19.8878 24.48C20.2345 24.2667 20.5078 23.9733 20.7078 23.6C20.9211 23.2133 21.0278 22.7733 21.0278 22.28L21.2878 24.74C20.9545 25.4733 20.4678 26.0667 19.8278 26.52C19.1878 26.9733 18.4145 27.2 17.5078 27.2ZM21.0878 27V24.6H21.0278V16.8H24.0278V27H21.0878Z" fill="#081D32"/>
<path d="M32.6544 27.2C31.681 27.2 30.901 26.9733 30.3144 26.52C29.7277 26.0667 29.381 25.4467 29.2744 24.66L29.4344 24.64V31.1H26.4344V16.8H29.3744V19.06L29.1944 19.02C29.341 18.2733 29.741 17.6867 30.3944 17.26C31.0477 16.82 31.8544 16.6 32.8144 16.6C33.7344 16.6 34.5277 16.82 35.1944 17.26C35.8744 17.6867 36.3944 18.2933 36.7544 19.08C37.1277 19.8667 37.3144 20.7933 37.3144 21.86C37.3144 22.94 37.121 23.88 36.7344 24.68C36.3477 25.48 35.8077 26.1 35.1144 26.54C34.421 26.98 33.601 27.2 32.6544 27.2ZM31.8144 24.8C32.521 24.8 33.0944 24.5467 33.5344 24.04C33.9744 23.5333 34.1944 22.8133 34.1944 21.88C34.1944 20.9467 33.9677 20.2333 33.5144 19.74C33.0744 19.2467 32.4944 19 31.7744 19C31.081 19 30.5077 19.2533 30.0544 19.76C29.6144 20.2533 29.3944 20.9667 29.3944 21.9C29.3944 22.8333 29.6144 23.5533 30.0544 24.06C30.5077 24.5533 31.0944 24.8 31.8144 24.8Z" fill="#081D32"/>
<path d="M45.3739 27C45.2939 26.7067 45.2339 26.3933 45.1939 26.06C45.1672 25.7267 45.1539 25.34 45.1539 24.9H45.0739V20.08C45.0739 19.6667 44.9339 19.3467 44.6539 19.12C44.3872 18.88 43.9872 18.76 43.4539 18.76C42.9472 18.76 42.5406 18.8467 42.2339 19.02C41.9406 19.1933 41.7472 19.4467 41.6539 19.78H38.7939C38.9272 18.86 39.4006 18.1 40.2139 17.5C41.0272 16.9 42.1406 16.6 43.5539 16.6C45.0206 16.6 46.1406 16.9267 46.9139 17.58C47.6872 18.2333 48.0739 19.1733 48.0739 20.4V24.9C48.0739 25.2333 48.0939 25.5733 48.1339 25.92C48.1872 26.2533 48.2672 26.6133 48.3739 27H45.3739ZM41.8139 27.2C40.8006 27.2 39.9939 26.9467 39.3939 26.44C38.7939 25.92 38.4939 25.2333 38.4939 24.38C38.4939 23.4333 38.8472 22.6733 39.5539 22.1C40.2739 21.5133 41.2739 21.1333 42.5539 20.96L45.5339 20.54V22.28L43.0539 22.66C42.5206 22.74 42.1272 22.8867 41.8739 23.1C41.6206 23.3133 41.4939 23.6067 41.4939 23.98C41.4939 24.3133 41.6139 24.5667 41.8539 24.74C42.0939 24.9133 42.4139 25 42.8139 25C43.4406 25 43.9739 24.8333 44.4139 24.5C44.8539 24.1533 45.0739 23.7533 45.0739 23.3L45.3539 24.9C45.0606 25.66 44.6139 26.2333 44.0139 26.62C43.4139 27.0067 42.6806 27.2 41.8139 27.2Z" fill="#081D32"/>
<path d="M55.5528 27.18C53.6861 27.18 52.1928 26.7667 51.0728 25.94C49.9528 25.1 49.2995 23.92 49.1128 22.4H52.0728C52.1661 23.1733 52.5395 23.7867 53.1928 24.24C53.8461 24.68 54.6795 24.9 55.6928 24.9C56.5195 24.9 57.1528 24.7533 57.5928 24.46C58.0461 24.1667 58.2728 23.7733 58.2728 23.28C58.2728 22.8133 58.1395 22.44 57.8728 22.16C57.6061 21.8667 57.1461 21.6333 56.4928 21.46L53.8128 20.72C52.4395 20.3333 51.4328 19.8067 50.7928 19.14C50.1661 18.46 49.8528 17.6133 49.8528 16.6C49.8528 15.7333 50.0728 14.9867 50.5128 14.36C50.9661 13.72 51.5995 13.2333 52.4128 12.9C53.2261 12.5533 54.1795 12.38 55.2728 12.38C56.9528 12.38 58.2928 12.78 59.2928 13.58C60.2928 14.3667 60.8595 15.4133 60.9928 16.72H58.0328C57.8995 16.0133 57.5728 15.4933 57.0528 15.16C56.5461 14.8267 55.8928 14.66 55.0928 14.66C54.3995 14.66 53.8461 14.7933 53.4328 15.06C53.0195 15.3267 52.8128 15.6867 52.8128 16.14C52.8128 16.4867 52.9261 16.8067 53.1528 17.1C53.3795 17.38 53.8528 17.62 54.5728 17.82L57.2528 18.56C58.6661 18.9467 59.6795 19.48 60.2928 20.16C60.9195 20.8267 61.2328 21.6733 61.2328 22.7C61.2328 24.14 60.7328 25.2467 59.7328 26.02C58.7328 26.7933 57.3395 27.18 55.5528 27.18Z" fill="#3E20E2"/>
<path d="M69.0997 27.2C68.1264 27.2 67.3463 26.9733 66.7597 26.52C66.173 26.0667 65.8263 25.4467 65.7197 24.66L65.8797 24.64V31.1H62.8797V16.8H65.8197V19.06L65.6397 19.02C65.7864 18.2733 66.1864 17.6867 66.8397 17.26C67.493 16.82 68.2997 16.6 69.2597 16.6C70.1797 16.6 70.973 16.82 71.6397 17.26C72.3197 17.6867 72.8397 18.2933 73.1997 19.08C73.573 19.8667 73.7597 20.7933 73.7597 21.86C73.7597 22.94 73.5664 23.88 73.1797 24.68C72.793 25.48 72.253 26.1 71.5597 26.54C70.8664 26.98 70.0464 27.2 69.0997 27.2ZM68.2597 24.8C68.9663 24.8 69.5397 24.5467 69.9797 24.04C70.4197 23.5333 70.6397 22.8133 70.6397 21.88C70.6397 20.9467 70.413 20.2333 69.9597 19.74C69.5197 19.2467 68.9397 19 68.2197 19C67.5263 19 66.953 19.2533 66.4997 19.76C66.0597 20.2533 65.8397 20.9667 65.8397 21.9C65.8397 22.8333 66.0597 23.5533 66.4997 24.06C66.953 24.5533 67.5397 24.8 68.2597 24.8Z" fill="#3E20E2"/>
<path d="M81.8192 27C81.7392 26.7067 81.6792 26.3933 81.6392 26.06C81.6125 25.7267 81.5992 25.34 81.5992 24.9H81.5192V20.08C81.5192 19.6667 81.3792 19.3467 81.0992 19.12C80.8325 18.88 80.4325 18.76 79.8992 18.76C79.3925 18.76 78.9859 18.8467 78.6792 19.02C78.3859 19.1933 78.1925 19.4467 78.0992 19.78H75.2392C75.3725 18.86 75.8459 18.1 76.6592 17.5C77.4726 16.9 78.5859 16.6 79.9992 16.6C81.4659 16.6 82.5859 16.9267 83.3592 17.58C84.1325 18.2333 84.5192 19.1733 84.5192 20.4V24.9C84.5192 25.2333 84.5392 25.5733 84.5792 25.92C84.6325 26.2533 84.7125 26.6133 84.8192 27H81.8192ZM78.2592 27.2C77.2459 27.2 76.4392 26.9467 75.8392 26.44C75.2392 25.92 74.9392 25.2333 74.9392 24.38C74.9392 23.4333 75.2925 22.6733 75.9992 22.1C76.7192 21.5133 77.7192 21.1333 78.9992 20.96L81.9792 20.54V22.28L79.4992 22.66C78.9659 22.74 78.5725 22.8867 78.3192 23.1C78.0659 23.3133 77.9392 23.6067 77.9392 23.98C77.9392 24.3133 78.0592 24.5667 78.2992 24.74C78.5392 24.9133 78.8592 25 79.2592 25C79.8859 25 80.4192 24.8333 80.8592 24.5C81.2992 24.1533 81.5192 23.7533 81.5192 23.3L81.7992 24.9C81.5059 25.66 81.0592 26.2333 80.4592 26.62C79.8592 27.0067 79.1259 27.2 78.2592 27.2Z" fill="#3E20E2"/>
<path d="M91.2106 27.2C90.144 27.2 89.204 26.9733 88.3906 26.52C87.5773 26.0667 86.9373 25.44 86.4706 24.64C86.0173 23.84 85.7906 22.9267 85.7906 21.9C85.7906 20.8733 86.0173 19.96 86.4706 19.16C86.9373 18.36 87.5773 17.7333 88.3906 17.28C89.204 16.8267 90.144 16.6 91.2106 16.6C92.104 16.6 92.904 16.7667 93.6106 17.1C94.3306 17.42 94.9173 17.8667 95.3706 18.44C95.8373 19.0133 96.1373 19.6867 96.2706 20.46H93.3706C93.224 19.9667 92.9573 19.5933 92.5706 19.34C92.1973 19.0867 91.7573 18.96 91.2506 18.96C90.7706 18.96 90.3506 19.08 89.9906 19.32C89.644 19.56 89.3773 19.9 89.1906 20.34C89.004 20.78 88.9106 21.3 88.9106 21.9C88.9106 22.5 89.004 23.02 89.1906 23.46C89.3773 23.9 89.644 24.24 89.9906 24.48C90.3506 24.72 90.7706 24.84 91.2506 24.84C91.7573 24.84 92.1973 24.7133 92.5706 24.46C92.9573 24.2067 93.224 23.8333 93.3706 23.34H96.2706C96.1373 24.1133 95.8373 24.7867 95.3706 25.36C94.9173 25.9333 94.3306 26.3867 93.6106 26.72C92.904 27.04 92.104 27.2 91.2106 27.2Z" fill="#3E20E2"/>
<path d="M102.562 27.2C101.429 27.2 100.442 26.98 99.6025 26.54C98.7625 26.0867 98.1092 25.46 97.6425 24.66C97.1892 23.86 96.9625 22.94 96.9625 21.9C96.9625 20.8467 97.1892 19.9267 97.6425 19.14C98.1092 18.34 98.7558 17.72 99.5825 17.28C100.409 16.8267 101.369 16.6 102.462 16.6C103.516 16.6 104.429 16.8133 105.202 17.24C105.976 17.6667 106.576 18.26 107.002 19.02C107.429 19.78 107.642 20.6733 107.642 21.7C107.642 21.9133 107.636 22.1133 107.622 22.3C107.609 22.4733 107.589 22.64 107.562 22.8H98.7225V20.82H105.142L104.622 21.18C104.622 20.3533 104.422 19.7467 104.022 19.36C103.636 18.96 103.102 18.76 102.422 18.76C101.636 18.76 101.022 19.0267 100.582 19.56C100.156 20.0933 99.9425 20.8933 99.9425 21.96C99.9425 23 100.156 23.7733 100.582 24.28C101.022 24.7867 101.676 25.04 102.542 25.04C103.022 25.04 103.436 24.96 103.782 24.8C104.129 24.64 104.389 24.38 104.562 24.02H107.382C107.049 25.0067 106.476 25.7867 105.662 26.36C104.862 26.92 103.829 27.2 102.562 27.2Z" fill="#3E20E2"/>
<path d="M14 7V16H17V10H93V16H96V7H14Z" fill="#F01266"/>
<path d="M50 0V6H52V2H82V6H84V0H50Z" fill="#F01266"/>
</svg>
