<svg width="108" height="32" viewBox="0 0 108 32" fill="none" xmlns="http://www.w3.org/2000/svg">
<path d="M6.92 27.28C5.05333 27.28 3.56 26.8667 2.44 26.04C1.32 25.2 0.666662 24.02 0.479996 22.5H3.44C3.53333 23.2733 3.90666 23.8867 4.56 24.34C5.21333 24.78 6.04666 25 7.06 25C7.88666 25 8.52 24.8533 8.96 24.56C9.41333 24.2667 9.64 23.8733 9.64 23.38C9.64 22.9133 9.50666 22.54 9.24 22.26C8.97333 21.9667 8.51333 21.7333 7.86 21.56L5.18 20.82C3.80666 20.4333 2.8 19.9067 2.16 19.24C1.53333 18.56 1.22 17.7133 1.22 16.7C1.22 15.8333 1.44 15.0867 1.88 14.46C2.33333 13.82 2.96666 13.3333 3.78 13C4.59333 12.6533 5.54666 12.48 6.64 12.48C8.32 12.48 9.66 12.88 10.66 13.68C11.66 14.4667 12.2267 15.5133 12.36 16.82H9.4C9.26666 16.1133 8.94 15.5933 8.42 15.26C7.91333 14.9267 7.26 14.76 6.46 14.76C5.76666 14.76 5.21333 14.8933 4.8 15.16C4.38666 15.4267 4.18 15.7867 4.18 16.24C4.18 16.5867 4.29333 16.9067 4.52 17.2C4.74666 17.48 5.22 17.72 5.94 17.92L8.62 18.66C10.0333 19.0467 11.0467 19.58 11.66 20.26C12.2867 20.9267 12.6 21.7733 12.6 22.8C12.6 24.24 12.1 25.3467 11.1 26.12C10.1 26.8933 8.70666 27.28 6.92 27.28Z" fill="white"/>
<path d="M17.5078 27.3C16.7878 27.3 16.1678 27.1467 15.6478 26.84C15.1411 26.52 14.7545 26.1 14.4878 25.58C14.2211 25.0467 14.0878 24.4533 14.0878 23.8V16.9H17.0878V23.22C17.0878 23.78 17.2278 24.2 17.5078 24.48C17.7878 24.76 18.1811 24.9 18.6878 24.9C19.1411 24.9 19.5411 24.7933 19.8878 24.58C20.2345 24.3667 20.5078 24.0733 20.7078 23.7C20.9211 23.3133 21.0278 22.8733 21.0278 22.38L21.2878 24.84C20.9545 25.5733 20.4678 26.1667 19.8278 26.62C19.1878 27.0733 18.4145 27.3 17.5078 27.3ZM21.0878 27.1V24.7H21.0278V16.9H24.0278V27.1H21.0878Z" fill="white"/>
<path d="M32.6544 27.3C31.681 27.3 30.901 27.0733 30.3144 26.62C29.7277 26.1667 29.381 25.5467 29.2744 24.76L29.4344 24.74V31.2H26.4344V16.9H29.3744V19.16L29.1944 19.12C29.341 18.3733 29.741 17.7867 30.3944 17.36C31.0477 16.92 31.8544 16.7 32.8144 16.7C33.7344 16.7 34.5277 16.92 35.1944 17.36C35.8744 17.7867 36.3944 18.3933 36.7544 19.18C37.1277 19.9667 37.3144 20.8933 37.3144 21.96C37.3144 23.04 37.121 23.98 36.7344 24.78C36.3477 25.58 35.8077 26.2 35.1144 26.64C34.421 27.08 33.601 27.3 32.6544 27.3ZM31.8144 24.9C32.521 24.9 33.0944 24.6467 33.5344 24.14C33.9744 23.6333 34.1944 22.9133 34.1944 21.98C34.1944 21.0467 33.9677 20.3333 33.5144 19.84C33.0744 19.3467 32.4944 19.1 31.7744 19.1C31.081 19.1 30.5077 19.3533 30.0544 19.86C29.6144 20.3533 29.3944 21.0667 29.3944 22C29.3944 22.9333 29.6144 23.6533 30.0544 24.16C30.5077 24.6533 31.0944 24.9 31.8144 24.9Z" fill="white"/>
<path d="M45.3739 27.1C45.2939 26.8067 45.2339 26.4933 45.1939 26.16C45.1672 25.8267 45.1539 25.44 45.1539 25H45.0739V20.18C45.0739 19.7667 44.9339 19.4467 44.6539 19.22C44.3872 18.98 43.9872 18.86 43.4539 18.86C42.9472 18.86 42.5406 18.9467 42.2339 19.12C41.9406 19.2933 41.7472 19.5467 41.6539 19.88H38.7939C38.9272 18.96 39.4006 18.2 40.2139 17.6C41.0272 17 42.1406 16.7 43.5539 16.7C45.0206 16.7 46.1406 17.0267 46.9139 17.68C47.6872 18.3333 48.0739 19.2733 48.0739 20.5V25C48.0739 25.3333 48.0939 25.6733 48.1339 26.02C48.1872 26.3533 48.2672 26.7133 48.3739 27.1H45.3739ZM41.8139 27.3C40.8006 27.3 39.9939 27.0467 39.3939 26.54C38.7939 26.02 38.4939 25.3333 38.4939 24.48C38.4939 23.5333 38.8472 22.7733 39.5539 22.2C40.2739 21.6133 41.2739 21.2333 42.5539 21.06L45.5339 20.64V22.38L43.0539 22.76C42.5206 22.84 42.1272 22.9867 41.8739 23.2C41.6206 23.4133 41.4939 23.7067 41.4939 24.08C41.4939 24.4133 41.6139 24.6667 41.8539 24.84C42.0939 25.0133 42.4139 25.1 42.8139 25.1C43.4406 25.1 43.9739 24.9333 44.4139 24.6C44.8539 24.2533 45.0739 23.8533 45.0739 23.4L45.3539 25C45.0606 25.76 44.6139 26.3333 44.0139 26.72C43.4139 27.1067 42.6806 27.3 41.8139 27.3Z" fill="white"/>
<path d="M55.5528 27.28C53.6861 27.28 52.1928 26.8667 51.0728 26.04C49.9528 25.2 49.2995 24.02 49.1128 22.5H52.0728C52.1661 23.2733 52.5395 23.8867 53.1928 24.34C53.8461 24.78 54.6795 25 55.6928 25C56.5195 25 57.1528 24.8533 57.5928 24.56C58.0461 24.2667 58.2728 23.8733 58.2728 23.38C58.2728 22.9133 58.1395 22.54 57.8728 22.26C57.6061 21.9667 57.1461 21.7333 56.4928 21.56L53.8128 20.82C52.4395 20.4333 51.4328 19.9067 50.7928 19.24C50.1661 18.56 49.8528 17.7133 49.8528 16.7C49.8528 15.8333 50.0728 15.0867 50.5128 14.46C50.9661 13.82 51.5995 13.3333 52.4128 13C53.2261 12.6533 54.1795 12.48 55.2728 12.48C56.9528 12.48 58.2928 12.88 59.2928 13.68C60.2928 14.4667 60.8595 15.5133 60.9928 16.82H58.0328C57.8995 16.1133 57.5728 15.5933 57.0528 15.26C56.5461 14.9267 55.8928 14.76 55.0928 14.76C54.3995 14.76 53.8461 14.8933 53.4328 15.16C53.0195 15.4267 52.8128 15.7867 52.8128 16.24C52.8128 16.5867 52.9261 16.9067 53.1528 17.2C53.3795 17.48 53.8528 17.72 54.5728 17.92L57.2528 18.66C58.6661 19.0467 59.6795 19.58 60.2928 20.26C60.9195 20.9267 61.2328 21.7733 61.2328 22.8C61.2328 24.24 60.7328 25.3467 59.7328 26.12C58.7328 26.8933 57.3395 27.28 55.5528 27.28Z" fill="#3E20E2"/>
<path d="M69.0997 27.3C68.1264 27.3 67.3464 27.0733 66.7597 26.62C66.173 26.1667 65.8263 25.5467 65.7197 24.76L65.8797 24.74V31.2H62.8797V16.9H65.8197V19.16L65.6397 19.12C65.7864 18.3733 66.1863 17.7867 66.8397 17.36C67.493 16.92 68.2997 16.7 69.2597 16.7C70.1797 16.7 70.973 16.92 71.6397 17.36C72.3197 17.7867 72.8397 18.3933 73.1997 19.18C73.573 19.9667 73.7597 20.8933 73.7597 21.96C73.7597 23.04 73.5664 23.98 73.1797 24.78C72.793 25.58 72.253 26.2 71.5597 26.64C70.8663 27.08 70.0464 27.3 69.0997 27.3ZM68.2597 24.9C68.9663 24.9 69.5397 24.6467 69.9797 24.14C70.4197 23.6333 70.6397 22.9133 70.6397 21.98C70.6397 21.0467 70.413 20.3333 69.9597 19.84C69.5197 19.3467 68.9397 19.1 68.2197 19.1C67.5263 19.1 66.953 19.3533 66.4997 19.86C66.0597 20.3533 65.8397 21.0667 65.8397 22C65.8397 22.9333 66.0597 23.6533 66.4997 24.16C66.953 24.6533 67.5397 24.9 68.2597 24.9Z" fill="#3E20E2"/>
<path d="M81.8192 27.1C81.7392 26.8067 81.6792 26.4933 81.6392 26.16C81.6125 25.8267 81.5992 25.44 81.5992 25H81.5192V20.18C81.5192 19.7667 81.3792 19.4467 81.0992 19.22C80.8325 18.98 80.4325 18.86 79.8992 18.86C79.3925 18.86 78.9859 18.9467 78.6792 19.12C78.3859 19.2933 78.1925 19.5467 78.0992 19.88H75.2392C75.3725 18.96 75.8459 18.2 76.6592 17.6C77.4725 17 78.5859 16.7 79.9992 16.7C81.4659 16.7 82.5859 17.0267 83.3592 17.68C84.1325 18.3333 84.5192 19.2733 84.5192 20.5V25C84.5192 25.3333 84.5392 25.6733 84.5792 26.02C84.6325 26.3533 84.7125 26.7133 84.8192 27.1H81.8192ZM78.2592 27.3C77.2459 27.3 76.4392 27.0467 75.8392 26.54C75.2392 26.02 74.9392 25.3333 74.9392 24.48C74.9392 23.5333 75.2925 22.7733 75.9992 22.2C76.7192 21.6133 77.7192 21.2333 78.9992 21.06L81.9792 20.64V22.38L79.4992 22.76C78.9659 22.84 78.5725 22.9867 78.3192 23.2C78.0659 23.4133 77.9392 23.7067 77.9392 24.08C77.9392 24.4133 78.0592 24.6667 78.2992 24.84C78.5392 25.0133 78.8592 25.1 79.2592 25.1C79.8859 25.1 80.4192 24.9333 80.8592 24.6C81.2992 24.2533 81.5192 23.8533 81.5192 23.4L81.7992 25C81.5059 25.76 81.0592 26.3333 80.4592 26.72C79.8592 27.1067 79.1259 27.3 78.2592 27.3Z" fill="#3E20E2"/>
<path d="M91.2106 27.3C90.144 27.3 89.2039 27.0733 88.3906 26.62C87.5773 26.1667 86.9373 25.54 86.4706 24.74C86.0173 23.94 85.7906 23.0267 85.7906 22C85.7906 20.9733 86.0173 20.06 86.4706 19.26C86.9373 18.46 87.5773 17.8333 88.3906 17.38C89.2039 16.9267 90.144 16.7 91.2106 16.7C92.104 16.7 92.904 16.8667 93.6106 17.2C94.3306 17.52 94.9173 17.9667 95.3706 18.54C95.8373 19.1133 96.1373 19.7867 96.2706 20.56H93.3706C93.224 20.0667 92.9573 19.6933 92.5706 19.44C92.1973 19.1867 91.7573 19.06 91.2506 19.06C90.7706 19.06 90.3506 19.18 89.9906 19.42C89.644 19.66 89.3773 20 89.1906 20.44C89.004 20.88 88.9106 21.4 88.9106 22C88.9106 22.6 89.004 23.12 89.1906 23.56C89.3773 24 89.644 24.34 89.9906 24.58C90.3506 24.82 90.7706 24.94 91.2506 24.94C91.7573 24.94 92.1973 24.8133 92.5706 24.56C92.9573 24.3067 93.224 23.9333 93.3706 23.44H96.2706C96.1373 24.2133 95.8373 24.8867 95.3706 25.46C94.9173 26.0333 94.3306 26.4867 93.6106 26.82C92.904 27.14 92.104 27.3 91.2106 27.3Z" fill="#3E20E2"/>
<path d="M102.562 27.3C101.429 27.3 100.442 27.08 99.6025 26.64C98.7625 26.1867 98.1092 25.56 97.6425 24.76C97.1892 23.96 96.9625 23.04 96.9625 22C96.9625 20.9467 97.1892 20.0267 97.6425 19.24C98.1092 18.44 98.7558 17.82 99.5825 17.38C100.409 16.9267 101.369 16.7 102.462 16.7C103.516 16.7 104.429 16.9133 105.202 17.34C105.976 17.7667 106.576 18.36 107.002 19.12C107.429 19.88 107.642 20.7733 107.642 21.8C107.642 22.0133 107.636 22.2133 107.622 22.4C107.609 22.5733 107.589 22.74 107.562 22.9H98.7225V20.92H105.142L104.622 21.28C104.622 20.4533 104.423 19.8467 104.022 19.46C103.636 19.06 103.102 18.86 102.422 18.86C101.636 18.86 101.022 19.1267 100.582 19.66C100.156 20.1933 99.9425 20.9933 99.9425 22.06C99.9425 23.1 100.156 23.8733 100.582 24.38C101.022 24.8867 101.676 25.14 102.542 25.14C103.022 25.14 103.436 25.06 103.782 24.9C104.129 24.74 104.389 24.48 104.562 24.12H107.382C107.049 25.1067 106.476 25.8867 105.662 26.46C104.862 27.02 103.829 27.3 102.562 27.3Z" fill="#3E20E2"/>
<path d="M14 7.10001V16.1H17V10.1H93V16.1H96V7.10001H14Z" fill="#F01266"/>
<path d="M50 0.100006V6.10001H52V2.10001H82V6.10001H84V0.100006H50Z" fill="#F01266"/>
</svg>
