<svg width="108" height="32" viewBox="0 0 108 32" fill="none" xmlns="http://www.w3.org/2000/svg">
<path d="M6.92 27.38C5.05333 27.38 3.56 26.9667 2.44 26.14C1.32 25.3 0.666662 24.12 0.479996 22.6H3.44C3.53333 23.3733 3.90666 23.9867 4.56 24.44C5.21333 24.88 6.04666 25.1 7.06 25.1C7.88666 25.1 8.52 24.9533 8.96 24.66C9.41333 24.3667 9.64 23.9733 9.64 23.48C9.64 23.0133 9.50666 22.64 9.24 22.36C8.97333 22.0667 8.51333 21.8333 7.86 21.66L5.18 20.92C3.80666 20.5333 2.8 20.0067 2.16 19.34C1.53333 18.66 1.22 17.8133 1.22 16.8C1.22 15.9333 1.44 15.1867 1.88 14.56C2.33333 13.92 2.96666 13.4333 3.78 13.1C4.59333 12.7533 5.54666 12.58 6.64 12.58C8.32 12.58 9.66 12.98 10.66 13.78C11.66 14.5667 12.2267 15.6133 12.36 16.92H9.4C9.26666 16.2133 8.94 15.6933 8.42 15.36C7.91333 15.0267 7.26 14.86 6.46 14.86C5.76666 14.86 5.21333 14.9933 4.8 15.26C4.38666 15.5267 4.18 15.8867 4.18 16.34C4.18 16.6867 4.29333 17.0067 4.52 17.3C4.74666 17.58 5.22 17.82 5.94 18.02L8.62 18.76C10.0333 19.1467 11.0467 19.68 11.66 20.36C12.2867 21.0267 12.6 21.8733 12.6 22.9C12.6 24.34 12.1 25.4467 11.1 26.22C10.1 26.9933 8.70666 27.38 6.92 27.38Z" fill="#081D32"/>
<path d="M17.5078 27.4C16.7878 27.4 16.1678 27.2467 15.6478 26.94C15.1411 26.62 14.7545 26.2 14.4878 25.68C14.2211 25.1467 14.0878 24.5533 14.0878 23.9V17H17.0878V23.32C17.0878 23.88 17.2278 24.3 17.5078 24.58C17.7878 24.86 18.1811 25 18.6878 25C19.1411 25 19.5411 24.8933 19.8878 24.68C20.2345 24.4667 20.5078 24.1733 20.7078 23.8C20.9211 23.4133 21.0278 22.9733 21.0278 22.48L21.2878 24.94C20.9545 25.6733 20.4678 26.2667 19.8278 26.72C19.1878 27.1733 18.4145 27.4 17.5078 27.4ZM21.0878 27.2V24.8H21.0278V17H24.0278V27.2H21.0878Z" fill="#081D32"/>
<path d="M32.6544 27.4C31.681 27.4 30.901 27.1733 30.3144 26.72C29.7277 26.2667 29.381 25.6467 29.2744 24.86L29.4344 24.84V31.3H26.4344V17H29.3744V19.26L29.1944 19.22C29.341 18.4733 29.741 17.8867 30.3944 17.46C31.0477 17.02 31.8544 16.8 32.8144 16.8C33.7344 16.8 34.5277 17.02 35.1944 17.46C35.8744 17.8867 36.3944 18.4933 36.7544 19.28C37.1277 20.0667 37.3144 20.9933 37.3144 22.06C37.3144 23.14 37.121 24.08 36.7344 24.88C36.3477 25.68 35.8077 26.3 35.1144 26.74C34.421 27.18 33.601 27.4 32.6544 27.4ZM31.8144 25C32.521 25 33.0944 24.7467 33.5344 24.24C33.9744 23.7333 34.1944 23.0133 34.1944 22.08C34.1944 21.1467 33.9677 20.4333 33.5144 19.94C33.0744 19.4467 32.4944 19.2 31.7744 19.2C31.081 19.2 30.5077 19.4533 30.0544 19.96C29.6144 20.4533 29.3944 21.1667 29.3944 22.1C29.3944 23.0333 29.6144 23.7533 30.0544 24.26C30.5077 24.7533 31.0944 25 31.8144 25Z" fill="#081D32"/>
<path d="M45.3739 27.2C45.2939 26.9067 45.2339 26.5933 45.1939 26.26C45.1672 25.9267 45.1539 25.54 45.1539 25.1H45.0739V20.28C45.0739 19.8667 44.9339 19.5467 44.6539 19.32C44.3872 19.08 43.9872 18.96 43.4539 18.96C42.9472 18.96 42.5406 19.0467 42.2339 19.22C41.9406 19.3933 41.7472 19.6467 41.6539 19.98H38.7939C38.9272 19.06 39.4006 18.3 40.2139 17.7C41.0272 17.1 42.1406 16.8 43.5539 16.8C45.0206 16.8 46.1406 17.1267 46.9139 17.78C47.6872 18.4333 48.0739 19.3733 48.0739 20.6V25.1C48.0739 25.4333 48.0939 25.7733 48.1339 26.12C48.1872 26.4533 48.2672 26.8133 48.3739 27.2H45.3739ZM41.8139 27.4C40.8006 27.4 39.9939 27.1467 39.3939 26.64C38.7939 26.12 38.4939 25.4333 38.4939 24.58C38.4939 23.6333 38.8472 22.8733 39.5539 22.3C40.2739 21.7133 41.2739 21.3333 42.5539 21.16L45.5339 20.74V22.48L43.0539 22.86C42.5206 22.94 42.1272 23.0867 41.8739 23.3C41.6206 23.5133 41.4939 23.8067 41.4939 24.18C41.4939 24.5133 41.6139 24.7667 41.8539 24.94C42.0939 25.1133 42.4139 25.2 42.8139 25.2C43.4406 25.2 43.9739 25.0333 44.4139 24.7C44.8539 24.3533 45.0739 23.9533 45.0739 23.5L45.3539 25.1C45.0606 25.86 44.6139 26.4333 44.0139 26.82C43.4139 27.2067 42.6806 27.4 41.8139 27.4Z" fill="#081D32"/>
<path d="M55.5528 27.38C53.6861 27.38 52.1928 26.9667 51.0728 26.14C49.9528 25.3 49.2995 24.12 49.1128 22.6H52.0728C52.1661 23.3733 52.5395 23.9867 53.1928 24.44C53.8461 24.88 54.6795 25.1 55.6928 25.1C56.5195 25.1 57.1528 24.9533 57.5928 24.66C58.0461 24.3667 58.2728 23.9733 58.2728 23.48C58.2728 23.0133 58.1395 22.64 57.8728 22.36C57.6061 22.0667 57.1461 21.8333 56.4928 21.66L53.8128 20.92C52.4395 20.5333 51.4328 20.0067 50.7928 19.34C50.1661 18.66 49.8528 17.8133 49.8528 16.8C49.8528 15.9333 50.0728 15.1867 50.5128 14.56C50.9661 13.92 51.5995 13.4333 52.4128 13.1C53.2261 12.7533 54.1795 12.58 55.2728 12.58C56.9528 12.58 58.2928 12.98 59.2928 13.78C60.2928 14.5667 60.8595 15.6133 60.9928 16.92H58.0328C57.8995 16.2133 57.5728 15.6933 57.0528 15.36C56.5461 15.0267 55.8928 14.86 55.0928 14.86C54.3995 14.86 53.8461 14.9933 53.4328 15.26C53.0195 15.5267 52.8128 15.8867 52.8128 16.34C52.8128 16.6867 52.9261 17.0067 53.1528 17.3C53.3795 17.58 53.8528 17.82 54.5728 18.02L57.2528 18.76C58.6661 19.1467 59.6795 19.68 60.2928 20.36C60.9195 21.0267 61.2328 21.8733 61.2328 22.9C61.2328 24.34 60.7328 25.4467 59.7328 26.22C58.7328 26.9933 57.3395 27.38 55.5528 27.38Z" fill="white"/>
<path d="M69.0997 27.4C68.1264 27.4 67.3463 27.1733 66.7597 26.72C66.173 26.2667 65.8263 25.6467 65.7197 24.86L65.8797 24.84V31.3H62.8797V17H65.8197V19.26L65.6397 19.22C65.7864 18.4733 66.1864 17.8867 66.8397 17.46C67.493 17.02 68.2997 16.8 69.2597 16.8C70.1797 16.8 70.973 17.02 71.6397 17.46C72.3197 17.8867 72.8397 18.4933 73.1997 19.28C73.573 20.0667 73.7597 20.9933 73.7597 22.06C73.7597 23.14 73.5664 24.08 73.1797 24.88C72.793 25.68 72.253 26.3 71.5597 26.74C70.8664 27.18 70.0464 27.4 69.0997 27.4ZM68.2597 25C68.9663 25 69.5397 24.7467 69.9797 24.24C70.4197 23.7333 70.6397 23.0133 70.6397 22.08C70.6397 21.1467 70.413 20.4333 69.9597 19.94C69.5197 19.4467 68.9397 19.2 68.2197 19.2C67.5263 19.2 66.953 19.4533 66.4997 19.96C66.0597 20.4533 65.8397 21.1667 65.8397 22.1C65.8397 23.0333 66.0597 23.7533 66.4997 24.26C66.953 24.7533 67.5397 25 68.2597 25Z" fill="white"/>
<path d="M81.8192 27.2C81.7392 26.9067 81.6792 26.5933 81.6392 26.26C81.6125 25.9267 81.5992 25.54 81.5992 25.1H81.5192V20.28C81.5192 19.8667 81.3792 19.5467 81.0992 19.32C80.8325 19.08 80.4325 18.96 79.8992 18.96C79.3925 18.96 78.9859 19.0467 78.6792 19.22C78.3859 19.3933 78.1925 19.6467 78.0992 19.98H75.2392C75.3725 19.06 75.8459 18.3 76.6592 17.7C77.4726 17.1 78.5859 16.8 79.9992 16.8C81.4659 16.8 82.5859 17.1267 83.3592 17.78C84.1325 18.4333 84.5192 19.3733 84.5192 20.6V25.1C84.5192 25.4333 84.5392 25.7733 84.5792 26.12C84.6325 26.4533 84.7125 26.8133 84.8192 27.2H81.8192ZM78.2592 27.4C77.2459 27.4 76.4392 27.1467 75.8392 26.64C75.2392 26.12 74.9392 25.4333 74.9392 24.58C74.9392 23.6333 75.2925 22.8733 75.9992 22.3C76.7192 21.7133 77.7192 21.3333 78.9992 21.16L81.9792 20.74V22.48L79.4992 22.86C78.9659 22.94 78.5725 23.0867 78.3192 23.3C78.0659 23.5133 77.9392 23.8067 77.9392 24.18C77.9392 24.5133 78.0592 24.7667 78.2992 24.94C78.5392 25.1133 78.8592 25.2 79.2592 25.2C79.8859 25.2 80.4192 25.0333 80.8592 24.7C81.2992 24.3533 81.5192 23.9533 81.5192 23.5L81.7992 25.1C81.5059 25.86 81.0592 26.4333 80.4592 26.82C79.8592 27.2067 79.1259 27.4 78.2592 27.4Z" fill="white"/>
<path d="M91.2106 27.4C90.144 27.4 89.204 27.1733 88.3906 26.72C87.5773 26.2667 86.9373 25.64 86.4706 24.84C86.0173 24.04 85.7906 23.1267 85.7906 22.1C85.7906 21.0733 86.0173 20.16 86.4706 19.36C86.9373 18.56 87.5773 17.9333 88.3906 17.48C89.204 17.0267 90.144 16.8 91.2106 16.8C92.104 16.8 92.904 16.9667 93.6106 17.3C94.3306 17.62 94.9173 18.0667 95.3706 18.64C95.8373 19.2133 96.1373 19.8867 96.2706 20.66H93.3706C93.224 20.1667 92.9573 19.7933 92.5706 19.54C92.1973 19.2867 91.7573 19.16 91.2506 19.16C90.7706 19.16 90.3506 19.28 89.9906 19.52C89.644 19.76 89.3773 20.1 89.1906 20.54C89.004 20.98 88.9106 21.5 88.9106 22.1C88.9106 22.7 89.004 23.22 89.1906 23.66C89.3773 24.1 89.644 24.44 89.9906 24.68C90.3506 24.92 90.7706 25.04 91.2506 25.04C91.7573 25.04 92.1973 24.9133 92.5706 24.66C92.9573 24.4067 93.224 24.0333 93.3706 23.54H96.2706C96.1373 24.3133 95.8373 24.9867 95.3706 25.56C94.9173 26.1333 94.3306 26.5867 93.6106 26.92C92.904 27.24 92.104 27.4 91.2106 27.4Z" fill="white"/>
<path d="M102.562 27.4C101.429 27.4 100.442 27.18 99.6025 26.74C98.7625 26.2867 98.1092 25.66 97.6425 24.86C97.1892 24.06 96.9625 23.14 96.9625 22.1C96.9625 21.0467 97.1892 20.1267 97.6425 19.34C98.1092 18.54 98.7558 17.92 99.5825 17.48C100.409 17.0267 101.369 16.8 102.462 16.8C103.516 16.8 104.429 17.0133 105.202 17.44C105.976 17.8667 106.576 18.46 107.002 19.22C107.429 19.98 107.642 20.8733 107.642 21.9C107.642 22.1133 107.636 22.3133 107.622 22.5C107.609 22.6733 107.589 22.84 107.562 23H98.7225V21.02H105.142L104.622 21.38C104.622 20.5533 104.422 19.9467 104.022 19.56C103.636 19.16 103.102 18.96 102.422 18.96C101.636 18.96 101.022 19.2267 100.582 19.76C100.156 20.2933 99.9425 21.0933 99.9425 22.16C99.9425 23.2 100.156 23.9733 100.582 24.48C101.022 24.9867 101.676 25.24 102.542 25.24C103.022 25.24 103.436 25.16 103.782 25C104.129 24.84 104.389 24.58 104.562 24.22H107.382C107.049 25.2067 106.476 25.9867 105.662 26.56C104.862 27.12 103.829 27.4 102.562 27.4Z" fill="white"/>
<path d="M14 7.20001V16.2H17V10.2H93V16.2H96V7.20001H14Z" fill="#F01266"/>
<path d="M50 0.200012V6.20001H52V2.20001H82V6.20001H84V0.200012H50Z" fill="#F01266"/>
</svg>
