<svg width="108" height="32" viewBox="0 0 108 32" fill="none" xmlns="http://www.w3.org/2000/svg">
<path d="M6.92 27.48C5.05333 27.48 3.56 27.0667 2.44 26.24C1.32 25.4 0.666662 24.22 0.479996 22.7H3.44C3.53333 23.4734 3.90666 24.0867 4.56 24.54C5.21333 24.98 6.04666 25.2 7.06 25.2C7.88666 25.2 8.52 25.0534 8.96 24.76C9.41333 24.4667 9.64 24.0734 9.64 23.58C9.64 23.1134 9.50666 22.74 9.24 22.46C8.97333 22.1667 8.51333 21.9334 7.86 21.76L5.18 21.02C3.80666 20.6334 2.8 20.1067 2.16 19.44C1.53333 18.76 1.22 17.9134 1.22 16.9C1.22 16.0334 1.44 15.2867 1.88 14.66C2.33333 14.02 2.96666 13.5334 3.78 13.2C4.59333 12.8534 5.54666 12.68 6.64 12.68C8.32 12.68 9.66 13.08 10.66 13.88C11.66 14.6667 12.2267 15.7134 12.36 17.02H9.4C9.26666 16.3134 8.94 15.7934 8.42 15.46C7.91333 15.1267 7.26 14.96 6.46 14.96C5.76666 14.96 5.21333 15.0934 4.8 15.36C4.38666 15.6267 4.18 15.9867 4.18 16.44C4.18 16.7867 4.29333 17.1067 4.52 17.4C4.74666 17.68 5.22 17.92 5.94 18.12L8.62 18.86C10.0333 19.2467 11.0467 19.78 11.66 20.46C12.2867 21.1267 12.6 21.9734 12.6 23C12.6 24.44 12.1 25.5467 11.1 26.32C10.1 27.0934 8.70666 27.48 6.92 27.48Z" fill="#081D32"/>
<path d="M17.5078 27.5C16.7878 27.5 16.1678 27.3467 15.6478 27.04C15.1411 26.72 14.7545 26.3 14.4878 25.78C14.2211 25.2467 14.0878 24.6534 14.0878 24V17.1H17.0878V23.42C17.0878 23.98 17.2278 24.4 17.5078 24.68C17.7878 24.96 18.1811 25.1 18.6878 25.1C19.1411 25.1 19.5411 24.9934 19.8878 24.78C20.2345 24.5667 20.5078 24.2734 20.7078 23.9C20.9211 23.5134 21.0278 23.0734 21.0278 22.58L21.2878 25.04C20.9545 25.7734 20.4678 26.3667 19.8278 26.82C19.1878 27.2734 18.4145 27.5 17.5078 27.5ZM21.0878 27.3V24.9H21.0278V17.1H24.0278V27.3H21.0878Z" fill="#081D32"/>
<path d="M32.6544 27.5C31.681 27.5 30.901 27.2734 30.3144 26.82C29.7277 26.3667 29.381 25.7467 29.2744 24.96L29.4344 24.94V31.4H26.4344V17.1H29.3744V19.36L29.1944 19.32C29.341 18.5734 29.741 17.9867 30.3944 17.56C31.0477 17.12 31.8544 16.9 32.8144 16.9C33.7344 16.9 34.5277 17.12 35.1944 17.56C35.8744 17.9867 36.3944 18.5934 36.7544 19.38C37.1277 20.1667 37.3144 21.0934 37.3144 22.16C37.3144 23.24 37.121 24.18 36.7344 24.98C36.3477 25.78 35.8077 26.4 35.1144 26.84C34.421 27.28 33.601 27.5 32.6544 27.5ZM31.8144 25.1C32.521 25.1 33.0944 24.8467 33.5344 24.34C33.9744 23.8334 34.1944 23.1134 34.1944 22.18C34.1944 21.2467 33.9677 20.5334 33.5144 20.04C33.0744 19.5467 32.4944 19.3 31.7744 19.3C31.081 19.3 30.5077 19.5534 30.0544 20.06C29.6144 20.5534 29.3944 21.2667 29.3944 22.2C29.3944 23.1334 29.6144 23.8534 30.0544 24.36C30.5077 24.8534 31.0944 25.1 31.8144 25.1Z" fill="#081D32"/>
<path d="M45.3739 27.3C45.2939 27.0067 45.2339 26.6934 45.1939 26.36C45.1672 26.0267 45.1539 25.64 45.1539 25.2H45.0739V20.38C45.0739 19.9667 44.9339 19.6467 44.6539 19.42C44.3872 19.18 43.9872 19.06 43.4539 19.06C42.9472 19.06 42.5406 19.1467 42.2339 19.32C41.9406 19.4934 41.7472 19.7467 41.6539 20.08H38.7939C38.9272 19.16 39.4006 18.4 40.2139 17.8C41.0272 17.2 42.1406 16.9 43.5539 16.9C45.0206 16.9 46.1406 17.2267 46.9139 17.88C47.6872 18.5334 48.0739 19.4734 48.0739 20.7V25.2C48.0739 25.5334 48.0939 25.8734 48.1339 26.22C48.1872 26.5534 48.2672 26.9134 48.3739 27.3H45.3739ZM41.8139 27.5C40.8006 27.5 39.9939 27.2467 39.3939 26.74C38.7939 26.22 38.4939 25.5334 38.4939 24.68C38.4939 23.7334 38.8472 22.9734 39.5539 22.4C40.2739 21.8134 41.2739 21.4334 42.5539 21.26L45.5339 20.84V22.58L43.0539 22.96C42.5206 23.04 42.1272 23.1867 41.8739 23.4C41.6206 23.6134 41.4939 23.9067 41.4939 24.28C41.4939 24.6134 41.6139 24.8667 41.8539 25.04C42.0939 25.2134 42.4139 25.3 42.8139 25.3C43.4406 25.3 43.9739 25.1334 44.4139 24.8C44.8539 24.4534 45.0739 24.0534 45.0739 23.6L45.3539 25.2C45.0606 25.96 44.6139 26.5334 44.0139 26.92C43.4139 27.3067 42.6806 27.5 41.8139 27.5Z" fill="#081D32"/>
<path d="M55.5528 27.48C53.6861 27.48 52.1928 27.0667 51.0728 26.24C49.9528 25.4 49.2995 24.22 49.1128 22.7H52.0728C52.1661 23.4734 52.5395 24.0867 53.1928 24.54C53.8461 24.98 54.6795 25.2 55.6928 25.2C56.5195 25.2 57.1528 25.0534 57.5928 24.76C58.0461 24.4667 58.2728 24.0734 58.2728 23.58C58.2728 23.1134 58.1395 22.74 57.8728 22.46C57.6061 22.1667 57.1461 21.9334 56.4928 21.76L53.8128 21.02C52.4395 20.6334 51.4328 20.1067 50.7928 19.44C50.1661 18.76 49.8528 17.9134 49.8528 16.9C49.8528 16.0334 50.0728 15.2867 50.5128 14.66C50.9661 14.02 51.5995 13.5334 52.4128 13.2C53.2261 12.8534 54.1795 12.68 55.2728 12.68C56.9528 12.68 58.2928 13.08 59.2928 13.88C60.2928 14.6667 60.8595 15.7134 60.9928 17.02H58.0328C57.8995 16.3134 57.5728 15.7934 57.0528 15.46C56.5461 15.1267 55.8928 14.96 55.0928 14.96C54.3995 14.96 53.8461 15.0934 53.4328 15.36C53.0195 15.6267 52.8128 15.9867 52.8128 16.44C52.8128 16.7867 52.9261 17.1067 53.1528 17.4C53.3795 17.68 53.8528 17.92 54.5728 18.12L57.2528 18.86C58.6661 19.2467 59.6795 19.78 60.2928 20.46C60.9195 21.1267 61.2328 21.9734 61.2328 23C61.2328 24.44 60.7328 25.5467 59.7328 26.32C58.7328 27.0934 57.3395 27.48 55.5528 27.48Z" fill="#5439FF"/>
<path d="M69.0997 27.5C68.1264 27.5 67.3463 27.2734 66.7597 26.82C66.173 26.3667 65.8263 25.7467 65.7197 24.96L65.8797 24.94V31.4H62.8797V17.1H65.8197V19.36L65.6397 19.32C65.7864 18.5734 66.1864 17.9867 66.8397 17.56C67.493 17.12 68.2997 16.9 69.2597 16.9C70.1797 16.9 70.973 17.12 71.6397 17.56C72.3197 17.9867 72.8397 18.5934 73.1997 19.38C73.573 20.1667 73.7597 21.0934 73.7597 22.16C73.7597 23.24 73.5664 24.18 73.1797 24.98C72.793 25.78 72.253 26.4 71.5597 26.84C70.8664 27.28 70.0464 27.5 69.0997 27.5ZM68.2597 25.1C68.9663 25.1 69.5397 24.8467 69.9797 24.34C70.4197 23.8334 70.6397 23.1134 70.6397 22.18C70.6397 21.2467 70.413 20.5334 69.9597 20.04C69.5197 19.5467 68.9397 19.3 68.2197 19.3C67.5263 19.3 66.953 19.5534 66.4997 20.06C66.0597 20.5534 65.8397 21.2667 65.8397 22.2C65.8397 23.1334 66.0597 23.8534 66.4997 24.36C66.953 24.8534 67.5397 25.1 68.2597 25.1Z" fill="#5439FF"/>
<path d="M81.8192 27.3C81.7392 27.0067 81.6792 26.6934 81.6392 26.36C81.6125 26.0267 81.5992 25.64 81.5992 25.2H81.5192V20.38C81.5192 19.9667 81.3792 19.6467 81.0992 19.42C80.8325 19.18 80.4325 19.06 79.8992 19.06C79.3925 19.06 78.9859 19.1467 78.6792 19.32C78.3859 19.4934 78.1925 19.7467 78.0992 20.08H75.2392C75.3725 19.16 75.8459 18.4 76.6592 17.8C77.4726 17.2 78.5859 16.9 79.9992 16.9C81.4659 16.9 82.5859 17.2267 83.3592 17.88C84.1325 18.5334 84.5192 19.4734 84.5192 20.7V25.2C84.5192 25.5334 84.5392 25.8734 84.5792 26.22C84.6325 26.5534 84.7125 26.9134 84.8192 27.3H81.8192ZM78.2592 27.5C77.2459 27.5 76.4392 27.2467 75.8392 26.74C75.2392 26.22 74.9392 25.5334 74.9392 24.68C74.9392 23.7334 75.2925 22.9734 75.9992 22.4C76.7192 21.8134 77.7192 21.4334 78.9992 21.26L81.9792 20.84V22.58L79.4992 22.96C78.9659 23.04 78.5725 23.1867 78.3192 23.4C78.0659 23.6134 77.9392 23.9067 77.9392 24.28C77.9392 24.6134 78.0592 24.8667 78.2992 25.04C78.5392 25.2134 78.8592 25.3 79.2592 25.3C79.8859 25.3 80.4192 25.1334 80.8592 24.8C81.2992 24.4534 81.5192 24.0534 81.5192 23.6L81.7992 25.2C81.5059 25.96 81.0592 26.5334 80.4592 26.92C79.8592 27.3067 79.1259 27.5 78.2592 27.5Z" fill="#5439FF"/>
<path d="M91.2106 27.5C90.144 27.5 89.204 27.2734 88.3906 26.82C87.5773 26.3667 86.9373 25.74 86.4706 24.94C86.0173 24.14 85.7906 23.2267 85.7906 22.2C85.7906 21.1734 86.0173 20.26 86.4706 19.46C86.9373 18.66 87.5773 18.0334 88.3906 17.58C89.204 17.1267 90.144 16.9 91.2106 16.9C92.104 16.9 92.904 17.0667 93.6106 17.4C94.3306 17.72 94.9173 18.1667 95.3706 18.74C95.8373 19.3134 96.1373 19.9867 96.2706 20.76H93.3706C93.224 20.2667 92.9573 19.8934 92.5706 19.64C92.1973 19.3867 91.7573 19.26 91.2506 19.26C90.7706 19.26 90.3506 19.38 89.9906 19.62C89.644 19.86 89.3773 20.2 89.1906 20.64C89.004 21.08 88.9106 21.6 88.9106 22.2C88.9106 22.8 89.004 23.32 89.1906 23.76C89.3773 24.2 89.644 24.54 89.9906 24.78C90.3506 25.02 90.7706 25.14 91.2506 25.14C91.7573 25.14 92.1973 25.0134 92.5706 24.76C92.9573 24.5067 93.224 24.1334 93.3706 23.64H96.2706C96.1373 24.4134 95.8373 25.0867 95.3706 25.66C94.9173 26.2334 94.3306 26.6867 93.6106 27.02C92.904 27.34 92.104 27.5 91.2106 27.5Z" fill="#5439FF"/>
<path d="M102.562 27.5C101.429 27.5 100.442 27.28 99.6025 26.84C98.7625 26.3867 98.1092 25.76 97.6425 24.96C97.1892 24.16 96.9625 23.24 96.9625 22.2C96.9625 21.1467 97.1892 20.2267 97.6425 19.44C98.1092 18.64 98.7558 18.02 99.5825 17.58C100.409 17.1267 101.369 16.9 102.462 16.9C103.516 16.9 104.429 17.1134 105.202 17.54C105.976 17.9667 106.576 18.56 107.002 19.32C107.429 20.08 107.642 20.9734 107.642 22C107.642 22.2134 107.636 22.4134 107.622 22.6C107.609 22.7734 107.589 22.94 107.562 23.1H98.7225V21.12H105.142L104.622 21.48C104.622 20.6534 104.422 20.0467 104.022 19.66C103.636 19.26 103.102 19.06 102.422 19.06C101.636 19.06 101.022 19.3267 100.582 19.86C100.156 20.3934 99.9425 21.1934 99.9425 22.26C99.9425 23.3 100.156 24.0734 100.582 24.58C101.022 25.0867 101.676 25.34 102.542 25.34C103.022 25.34 103.436 25.26 103.782 25.1C104.129 24.94 104.389 24.68 104.562 24.32H107.382C107.049 25.3067 106.476 26.0867 105.662 26.66C104.862 27.22 103.829 27.5 102.562 27.5Z" fill="#5439FF"/>
<path d="M14 7.30002V16.3H17V10.3H93V16.3H96V7.30002H14Z" fill="white"/>
<path d="M50 0.300018V6.30002H52V2.30002H82V6.30002H84V0.300018H50Z" fill="white"/>
</svg>
